<?xml version="1.0" encoding="UTF-8"?>
<svg id="Layer_1" data-name="Layer 1" xmlns="http://www.w3.org/2000/svg" viewBox="0 0 596.23 597.74">
  <defs>
    <style>
      .cls-1 {
        fill: red;
      }
    </style>
  </defs>
  <path class="cls-1" d="M287.07,64.09c-2.08-2.14-9.29-4.26-13.04-8.21-24.88-26.22,4.04-68.44,39.75-52.3,17.01,7.69,22.59,32.1,12.24,47.41-3.41,5.05-17.38,14.19-17.77,15.31-1.51,4.32,2.32,32.35,5.17,35.29,3.11,3.18,26.69,5.39,34.31,8.25,8.25,3.07,16.18,11.38,22.58,13.67,9.54,3.37,26.66,3.17,37.37,5.2,63.08,12,107.12,33.77,134.43,94.08,2.65,5.85,4.81,17.63,7.93,22.01s19.3,8.8,26.03,14.95c25.37,23.18,25.78,104.68,6.95,131.43-9.84,14-25.32,15.14-32.27,22.88-4.08,4.54-6.23,17.55-9.13,23.97-21.35,47.25-47.4,63.4-93.36,83.14-66.52,28.55-136.34,51.61-204.13,76.58-3.94-.22-6.29-1.72-7.05-5.71-2.4-12.66,1.56-32.04,0-45.66-.99-8.61-4.62-9.85-12.28-11.35-68.85-13.48-128.74-15.56-165.17-87-4-7.84-10.36-30.51-14.22-34.61-3.31-3.52-17.09-7.33-23.54-12.71-29.48-24.56-29.58-121.07,2.43-143.97,7.11-5.09,17.71-6.09,22.69-13.56,4.04-6.05,5.3-16.07,8.47-23.04,26.57-58.48,73.54-79.83,133.97-91.39,10.53-2.02,23.54-1.91,33.54-4.3,12.6-3.03,23.68-15.39,43.66-19.39,5.28-1.06,13.28,1.14,16.85-3.63,2.73-3.63,6.92-33.9,3.61-37.32v-.02ZM247.75,183.86c-37.65,2.16-96.94,9.63-122.6,39.75-35.41,41.55-35.52,171.24,0,212.52,37.65,43.75,161.01,42.89,215.23,40.27,41.55-2,106.9-9.38,133.83-44.29,32.46-42.08,32.54-172.6-5.39-211.69-40.73-41.94-165.35-39.76-221.05-36.56h-.02Z"/>
  <path class="cls-1" d="M400.51,295.72c14.35,12.09,15.26,62.03-5.17,70.21-42.82,17.14-43.42-65.48-19.3-72.83,6.76-2.07,18.92-2.07,24.47,2.62Z"/>
  <path class="cls-1" d="M227.03,362.39c-7.36,6.94-23.08,7.71-30.86,1.21-11.37-9.51-11.04-34.7-9.18-48.29,2.54-18.54,14.06-27.32,32.75-22.5,20.7,5.35,20.2,57.41,7.28,69.58h0Z"/>
</svg>